<svg xmlns="http://www.w3.org/2000/svg" viewBox="0 0 1200 720" role="img" aria-labelledby="title desc">
  <title id="title">Face Mask Detection cover</title>
  <desc id="desc">Abstract real-time detection cover.</desc>
  <defs>
    <linearGradient id="bg" x1="0" x2="1" y1="0" y2="1">
      <stop offset="0" stop-color="#155e75"/>
      <stop offset=".55" stop-color="#0f766e"/>
      <stop offset="1" stop-color="#020617"/>
    </linearGradient>
  </defs>
  <rect width="1200" height="720" fill="url(#bg)"/>
  <g fill="none" stroke="#ccfbf1" stroke-opacity=".18" stroke-width="2">
    <path d="M0 180h1200M0 360h1200M0 540h1200"/>
    <path d="M240 0v720M480 0v720M720 0v720M960 0v720"/>
  </g>
  <rect x="330" y="92" width="540" height="540" rx="52" fill="#020617" opacity=".48" stroke="#99f6e4" stroke-opacity=".65" stroke-width="5"/>
  <circle cx="600" cy="298" r="132" fill="#67e8f9" opacity=".14" stroke="#ccfbf1" stroke-width="5"/>
  <path d="M475 360c56 50 194 50 250 0v82c-62 62-188 62-250 0v-82z" fill="#5eead4" opacity=".62" stroke="#ccfbf1" stroke-width="5"/>
  <path d="M482 384l-72-36M718 384l72-36" stroke="#ccfbf1" stroke-width="14" stroke-linecap="round"/>
  <circle cx="548" cy="274" r="14" fill="#e0f2fe"/>
  <circle cx="652" cy="274" r="14" fill="#e0f2fe"/>
  <path d="M410 156h88M702 156h88M410 564h88M702 564h88" stroke="#67e8f9" stroke-width="10" stroke-linecap="round"/>
  <text x="600" y="675" text-anchor="middle" fill="#e0f2fe" font-family="Inter,Arial,sans-serif" font-size="34" font-weight="800">Real-time Detection</text>
</svg>
