<svg xmlns="http://www.w3.org/2000/svg" viewBox="0 0 1200 720" role="img" aria-labelledby="title desc">
  <title id="title">Rakshak AI cover</title>
  <desc id="desc">Abstract AI public safety platform cover.</desc>
  <defs>
    <linearGradient id="bg" x1="0" x2="1" y1="0" y2="1">
      <stop offset="0" stop-color="#0f766e"/>
      <stop offset="0.52" stop-color="#0b3b82"/>
      <stop offset="1" stop-color="#111827"/>
    </linearGradient>
    <radialGradient id="glow" cx="35%" cy="25%" r="65%">
      <stop offset="0" stop-color="#67e8f9" stop-opacity=".55"/>
      <stop offset="1" stop-color="#67e8f9" stop-opacity="0"/>
    </radialGradient>
  </defs>
  <rect width="1200" height="720" fill="url(#bg)"/>
  <rect width="1200" height="720" fill="url(#glow)"/>
  <path d="M600 142l250 92v160c0 138-96 250-250 313-154-63-250-175-250-313V234l250-92z" fill="#020617" opacity=".48" stroke="#a5f3fc" stroke-opacity=".5" stroke-width="4"/>
  <path d="M478 390l78 78 174-188" fill="none" stroke="#22d3ee" stroke-width="28" stroke-linecap="round" stroke-linejoin="round"/>
  <g stroke="#e0f2fe" stroke-opacity=".38" stroke-width="2">
    <path d="M140 590h920M180 530h840M230 470h740"/>
    <path d="M270 145v420M420 95v510M780 95v510M930 145v420"/>
  </g>
  <circle cx="250" cy="180" r="8" fill="#67e8f9"/>
  <circle cx="940" cy="210" r="8" fill="#67e8f9"/>
  <circle cx="845" cy="545" r="8" fill="#67e8f9"/>
</svg>
